<svg width="7" height="14" viewBox="0 0 7 14" fill="none" xmlns="http://www.w3.org/2000/svg">
<path d="M0.886592 0.154789L6.71634 6.13529C6.81873 6.24033 6.87604 6.38122 6.87604 6.52791C6.87604 6.67461 6.81873 6.81549 6.71634 6.92054L0.886592 12.9033C0.838897 12.9523 0.781872 12.9912 0.718882 13.0178C0.655892 13.0444 0.588214 13.0581 0.519843 13.0581C0.451473 13.0581 0.383794 13.0444 0.320804 13.0178C0.257814 12.9912 0.200788 12.9523 0.153093 12.9033C0.0549594 12.8028 1.95503e-05 12.668 1.95503e-05 12.5275C1.95503e-05 12.3871 0.0549594 12.2522 0.153093 12.1518L5.63522 6.52791L0.153093 0.905164C0.055296 0.80476 0.000568867 0.670138 0.000568867 0.529976C0.000568867 0.389815 0.055296 0.255193 0.153093 0.154789C0.200788 0.105803 0.257814 0.0668676 0.320804 0.0402822C0.383794 0.0136969 0.451473 0 0.519843 0C0.588214 0 0.655892 0.0136969 0.718882 0.0402822C0.781872 0.0668676 0.838897 0.105803 0.886592 0.154789Z" fill="#0578B1"/>
</svg>
