<svg width="7" height="14" viewBox="0 0 7 14" fill="none" xmlns="http://www.w3.org/2000/svg">
<path d="M5.98945 0.154789L0.159695 6.13529C0.0573044 6.24033 0 6.38122 0 6.52791C0 6.67461 0.0573044 6.81549 0.159695 6.92054L5.98945 12.9033C6.03714 12.9523 6.09417 12.9912 6.15716 13.0178C6.22015 13.0444 6.28782 13.0581 6.35619 13.0581C6.42456 13.0581 6.49224 13.0444 6.55523 13.0178C6.61822 12.9912 6.67525 12.9523 6.72294 12.9033C6.82108 12.8028 6.87602 12.668 6.87602 12.5275C6.87602 12.3871 6.82108 12.2522 6.72294 12.1518L1.24082 6.52791L6.72294 0.905164C6.82074 0.80476 6.87547 0.670138 6.87547 0.529976C6.87547 0.389815 6.82074 0.255193 6.72294 0.154789C6.67525 0.105803 6.61822 0.0668676 6.55523 0.0402822C6.49224 0.0136969 6.42456 0 6.35619 0C6.28782 0 6.22015 0.0136969 6.15716 0.0402822C6.09417 0.0668676 6.03714 0.105803 5.98945 0.154789Z" fill="#0578B1"/>
</svg>
